<svg width="184" height="104" viewBox="0 0 184 104" fill="none" xmlns="http://www.w3.org/2000/svg">
<path d="M3.26859 20.6263L95.2794 32.249L103.451 64.6615L53.4415 61.6331L4.57603 44.6083L3.26859 20.6263Z" fill="url(#paint0_linear_10125_33)"/>
<path d="M42.4969 0.0491099C42.1483 0.0927632 41.1023 0.24555 40.2089 0.37651C36.9621 0.834869 34.369 1.66428 30.9697 3.34493C25.1298 6.22604 19.2899 11.9883 16.4571 17.5977L15.8252 18.82L14.2345 18.5363C13.3629 18.3617 10.7262 18.1871 8.39463 18.0998C4.2762 17.9906 4.10188 17.9906 3.07772 18.4708C1.85744 19.0601 0.985821 20.1515 0.397474 21.8103C-0.234453 23.6437 -0.103709 28.6638 0.724334 35.4956C1.55238 42.1091 1.74849 43.1349 2.424 44.4882C2.92518 45.4703 4.62485 47.0637 5.71438 47.5657C6.15019 47.7621 6.10661 47.8495 4.7338 49.2245C2.27147 51.6691 0.985821 54.703 0.985821 58.2171C0.985821 64.4377 5.80155 68.9122 14.5614 70.8329C16.0867 71.1603 16.6315 71.4004 17.2852 71.9897C18.5708 73.1465 21.4472 75.2855 23.4955 76.617C24.5415 77.2936 25.3913 77.8829 25.3913 77.9266C25.3913 77.9702 24.9991 78.5814 24.5415 79.2798C21.0768 84.4746 19.595 89.9749 20.7935 93.1397C21.3818 94.7113 22.4278 95.9117 23.8877 96.7193C24.8901 97.265 25.3695 97.3741 27.0256 97.4396C30.4031 97.5924 33.9986 96.4574 37.6158 94.0783C39.4898 92.856 43.2378 89.2764 44.4799 87.5521C44.9375 86.8973 45.4604 86.3735 45.6348 86.3516C45.7873 86.3516 46.9204 86.6354 48.1407 86.9846C52.0848 88.1414 55.6802 88.9927 61.9559 90.2804C66.946 91.3063 68.2316 91.6337 68.7328 92.0484C69.0815 92.3321 70.3235 93.3798 71.5002 94.3839C78.4296 100.233 87.7124 104.424 92.746 103.966C94.5547 103.813 96.0582 103.071 97.2785 101.718C98.7167 100.146 99.1525 98.8583 99.1525 96.13V94.0128L99.9152 93.9037C107.912 92.7032 113.796 91.1535 119.963 88.5998C125.563 86.2862 133.059 81.7899 138.158 77.7083C141.448 75.0673 146.917 69.567 149.576 66.2057C153.128 61.7094 155.459 58.0425 157.9 53.1533L159.382 50.2067L160.972 49.9448C166.965 49.0063 172.979 45.9287 177.272 41.6289C183.46 35.4301 185.966 26.6994 182.284 24.1894C181.194 23.4691 180.061 23.5564 177.337 24.6259C175.245 25.4335 174.766 25.5426 173.132 25.5426C171.846 25.5645 170.647 25.3898 169.209 25.0188C166.376 24.2985 161.692 24.2767 159.098 24.997C158.14 25.2371 157.29 25.3898 157.224 25.3025C154.239 21.5484 151.995 20.086 147.092 18.6891C143.867 17.7505 142.864 17.1612 141.034 15.1532C139.247 13.1451 138.397 12.5776 137.308 12.5776C135.303 12.5776 133.843 14.3674 132.906 17.9251C132.296 20.2606 132.361 24.9533 133.015 27.4852C134.301 32.4617 137.025 36.8707 141.688 41.5416L143.91 43.7679L142.69 44.881C138.877 48.3733 134.519 50.1849 129.877 50.1849C121.706 50.1849 115.169 45.6231 100.634 29.8207C95.143 23.8402 90.5016 19.3002 86.7318 16.179C73.9626 5.63674 60.9971 0.37651 46.964 0.0491099C44.8721 -0.01637 42.8674 -0.01637 42.4969 0.0491099ZM9.52774 21.7448C15.3676 22.1595 20.4012 23.5564 26.3283 26.3502C28.9214 27.5943 30.4249 28.14 33.3449 28.9039L37.0493 29.908L42.6059 29.8425C48.4893 29.777 53.0436 30.1481 58.5348 31.1521C61.5201 31.6759 67.9701 33.2693 70.8029 34.186C72.6551 34.7971 72.9602 34.9499 73.8536 35.9539C74.7906 36.9798 75.5533 37.4163 84.4003 41.8253C89.63 44.4227 94.2496 46.8454 94.6418 47.1728C95.6006 47.9804 96.603 50.0539 97.7143 53.4371C98.1937 54.9649 98.6077 56.3182 98.6077 56.4273C98.6077 56.842 97.9104 57.3222 97.2785 57.3222C96.6901 57.3222 96.5594 57.1476 95.252 54.5284L93.8574 51.7564L91.9398 51.0361C86.2307 48.9408 74.1151 45.9724 71.2169 45.9724C69.234 45.9724 68.4495 46.5399 67.0985 48.9844C65.7693 51.3635 62.5443 56.0781 61.5855 57.0385C59.864 58.7628 58.0554 59.243 54.7868 58.8283C49.3392 58.1735 41.7996 55.5979 39.6641 53.6553C37.6376 51.8437 36.8096 49.0063 36.2866 42.1527C36.1776 40.472 36.0033 38.6823 35.9379 38.1584C35.6765 36.3686 34.3254 35.4301 31.6452 35.1463C29.3136 34.9063 28.7906 35.3646 26.4808 39.6426C24.5633 43.1786 23.3648 44.9683 22.0355 46.2998C20.532 47.8058 19.4643 48.0677 16.8058 47.6094C12.9053 46.9327 7.78449 44.881 6.21557 43.3532C5.2132 42.4146 5.06066 41.8035 4.36336 35.6047C3.53532 28.271 3.31742 24.7787 3.5789 23.7747C3.90576 22.6179 4.55948 21.7884 5.30036 21.6793C6.32452 21.5265 6.47705 21.5265 9.52774 21.7448ZM41.9522 72.4699C44.8285 72.5136 46.2667 72.6445 46.964 72.8846C47.5088 73.0592 49.8621 74.1506 52.1937 75.2855C54.5253 76.3987 57.3581 77.7083 58.4476 78.1667L60.4742 79.0179L60.8228 80.1311C61.3458 81.7244 62.4789 84.1035 63.3723 85.4786C63.8081 86.1334 64.0696 86.7227 63.9389 86.7445C63.4377 86.9191 55.0483 84.9766 49.5353 83.4269C40.9062 80.9823 31.2748 76.9444 25.9143 73.5394L23.9313 72.2735L30.9261 72.3171C34.783 72.3608 39.7295 72.4263 41.9522 72.4699ZM128.025 80.1092C128.025 80.3493 122.033 83.4705 119.57 84.54C113.142 87.3338 105.646 89.3637 98.8692 90.1713C97.7579 90.3023 97.7143 90.2804 97.3439 89.6038C97.1478 89.2328 96.5158 88.1414 95.9493 87.2029C95.3827 86.2425 94.9905 85.4786 95.0776 85.4786C97.845 85.4568 107.934 84.54 112.031 83.9507C116.89 83.2304 123.296 81.7244 126.718 80.4803C127.371 80.2402 127.938 80.0437 127.981 80.0437C128.003 80.0219 128.025 80.0656 128.025 80.1092Z" fill="#02001A"/>
<path d="M7.80628 25.3244C6.86928 25.7609 6.41168 26.5248 6.08482 28.2491C5.32215 32.1125 6.21556 39.6208 7.58837 41.1487C7.84986 41.4324 8.6779 41.9563 9.44057 42.3055C11.2056 43.1131 15.5637 44.379 17.2416 44.5536C18.3747 44.6846 18.6144 44.6409 19.2899 44.1826C20.8153 43.1567 22.8418 39.8391 24.2364 36.1504C24.8465 34.5134 25.0426 33.6621 25.1298 32.0906C25.2606 29.4496 25.0209 29.0131 22.9507 27.9872C18.7887 25.9573 9.85459 24.3858 7.80628 25.3244ZM14.0602 28.3146C14.3652 28.8821 14.2999 28.9694 11.7504 31.0429C10.0507 32.418 9.6149 32.6799 9.1573 32.5708C8.74327 32.4617 8.61253 32.2871 8.61253 31.8069C8.61253 31.283 8.93939 30.9338 10.748 29.5369C12.9489 27.8126 13.6679 27.5289 14.0602 28.3146ZM18.8759 29.3841C19.0938 29.5151 19.2899 29.8425 19.2899 30.1481C19.2899 30.5409 18.549 31.2612 15.9995 33.4002C14.1691 34.9063 12.5348 36.1504 12.3387 36.1504C11.8811 36.1504 11.4453 35.7357 11.4453 35.2773C11.4453 34.7971 12.9271 33.4439 17.2852 29.9953C18.4619 29.0567 18.3311 29.1004 18.8759 29.3841Z" fill="#02001A"/>
<path d="M42.8238 33.6403C41.9304 34.0332 41.1459 35.0809 40.6229 36.6524C40.1 38.1148 40.0564 43.5278 40.5358 46.2125C41.3638 50.9707 41.7125 51.3854 45.9834 52.8041C51.4093 54.5939 56.5737 55.3797 58.0554 54.6157C59.973 53.6117 63.4159 48.1769 64.963 43.6806C65.7475 41.4324 65.8347 38.8787 65.1591 38.1148C64.3311 37.1762 60.801 35.8666 56.0071 34.7535C50.8209 33.5312 44.3055 32.9855 42.8238 33.6403ZM52.0194 36.3032C52.2373 36.4996 52.4116 36.827 52.4116 37.0235C52.4116 37.3072 49.2956 40.0574 44.7631 43.7679C44.2184 44.2044 44.0441 44.2481 43.5865 44.0516C43.216 43.877 43.0417 43.6151 43.0417 43.2659C43.0417 42.8512 43.8915 42.0436 47.0947 39.3371C49.3392 37.46 51.2785 35.9321 51.3875 35.9321C51.5182 35.9321 51.8015 36.0849 52.0194 36.3032ZM56.7262 39.0315C57.3145 39.6208 56.9005 40.1228 53.7845 42.742C49.9057 46.016 49.6224 46.2125 49.0123 45.9724C48.0535 45.6013 48.2278 44.9684 49.6442 43.7242C55.0701 39.0097 56.0507 38.3549 56.7262 39.0315Z" fill="#02001A"/>
<defs>
<linearGradient id="paint0_linear_10125_33" x1="3.90212" y1="4.05948" x2="176.162" y2="48.1949" gradientUnits="userSpaceOnUse">
<stop stop-color="#EA3A77"/>
<stop offset="0.471154" stop-color="#D957C1"/>
</linearGradient>
</defs>
</svg>
