<svg width="655" height="514" viewBox="0 0 655 514" fill="none" xmlns="http://www.w3.org/2000/svg">
<path d="M11.624 73.4474L338.839 114.834L367.899 230.251L190.052 219.467L16.2736 158.844L11.624 73.4474Z" fill="url(#paint0_linear_10166_127)"/>
<path d="M151.13 0.174874C149.891 0.330317 146.171 0.874368 142.994 1.3407C131.447 2.97285 122.225 5.92625 110.137 11.9108C89.3684 22.1701 68.6002 42.6886 58.526 62.6631L56.2787 67.0155L50.6217 66.0051C47.522 65.3833 38.1453 64.7616 29.8535 64.4507C15.2073 64.0621 14.5874 64.0621 10.9452 65.772C6.60557 67.8704 3.50584 71.7565 1.41353 77.6634C-0.833778 84.192 -0.368819 102.068 2.57592 126.395C5.52067 149.944 6.21811 153.597 8.6204 158.416C10.4027 161.914 16.4472 167.587 20.3219 169.375C21.8717 170.074 21.7168 170.385 16.8347 175.282C8.07794 183.987 3.50584 194.79 3.50584 207.303C3.50584 229.454 20.6319 245.387 51.7841 252.226C57.2087 253.392 59.146 254.247 61.4708 256.345C66.0429 260.465 76.272 268.081 83.5564 272.822C87.276 275.232 90.2983 277.33 90.2983 277.486C90.2983 277.641 88.9034 279.817 87.276 282.304C74.9546 300.802 69.6851 320.388 73.9472 331.658C76.0395 337.254 79.7592 341.528 84.9512 344.404C88.5159 346.347 90.2208 346.736 96.1103 346.969C108.122 347.513 120.908 343.471 133.772 335C140.436 330.647 153.765 317.901 158.182 311.761C159.81 309.429 161.67 307.564 162.29 307.486C162.832 307.486 166.862 308.497 171.201 309.74C185.228 313.859 198.014 316.891 220.332 321.476C238.078 325.129 242.65 326.295 244.432 327.772C245.672 328.782 250.089 332.513 254.274 336.088C278.917 356.917 311.929 371.84 329.83 370.208C336.262 369.664 341.609 367.021 345.948 362.202C351.063 356.606 352.613 352.021 352.613 342.306V334.767L355.325 334.378C383.765 330.103 404.688 324.585 426.619 315.492C446.535 307.253 473.192 291.242 491.326 276.708C503.027 267.304 522.478 247.718 531.932 235.749C544.564 219.738 552.855 206.681 561.535 189.272L566.804 178.779L572.461 177.847C593.772 174.505 615.16 163.546 630.426 148.235C652.434 126.162 661.346 95.073 648.25 86.135C644.375 83.5702 640.345 83.8811 630.659 87.6894C623.219 90.5651 621.514 90.9538 615.702 90.9538C611.13 91.0315 606.868 90.4097 601.754 89.0884C591.68 86.5236 575.019 86.4459 565.797 89.0107C562.387 89.8656 559.365 90.4097 559.132 90.0988C548.516 76.7307 540.534 71.5233 523.098 66.5492C511.629 63.2071 508.064 61.1087 501.555 53.9583C495.2 46.8079 492.178 44.7871 488.304 44.7871C481.174 44.7871 475.982 51.1603 472.65 63.8289C470.48 72.1451 470.713 88.8553 473.037 97.871C477.61 115.592 487.296 131.291 503.88 147.924L511.784 155.851L507.444 159.815C493.883 172.251 478.384 178.701 461.878 178.701C432.818 178.701 409.57 162.458 357.882 106.187C338.354 84.8915 321.848 68.7254 308.442 57.6112C263.031 20.0716 216.922 1.3407 167.017 0.174874C159.577 -0.0582912 152.448 -0.0582912 151.13 0.174874ZM33.8832 77.4302C54.6514 78.9069 72.5523 83.8811 93.6305 93.8295C102.852 98.2596 108.199 100.203 118.583 102.923L131.757 106.498L151.518 106.265C172.441 106.032 188.637 107.353 208.165 110.928C218.782 112.794 241.72 118.467 251.794 121.732C258.381 123.908 259.466 124.452 262.643 128.027C265.975 131.68 268.688 133.234 300.15 148.934C318.748 158.183 335.177 166.81 336.572 167.976C339.982 170.852 343.546 178.235 347.498 190.282C349.203 195.723 350.676 200.541 350.676 200.93C350.676 202.407 348.196 204.116 345.948 204.116C343.856 204.116 343.391 203.495 338.742 194.168L333.782 184.297L326.963 181.733C306.659 174.271 263.573 163.701 253.267 163.701C246.215 163.701 243.425 165.722 238.62 174.427C233.893 182.898 222.424 199.686 219.015 203.106C212.893 209.246 206.461 210.956 194.837 209.479C175.463 207.148 148.651 197.976 141.056 191.059C133.849 184.608 130.905 174.505 129.045 150.1C128.657 144.115 128.037 137.742 127.805 135.877C126.875 129.504 122.071 126.162 112.539 125.151C104.247 124.296 102.387 125.928 94.1729 141.162C87.3535 153.753 83.0914 160.126 78.3643 164.867C73.0173 170.23 69.2201 171.162 59.7659 169.53C45.8946 167.121 27.6837 159.815 22.1042 154.375C18.5395 151.033 17.9971 148.856 15.5173 126.783C12.5726 100.669 11.7976 88.2335 12.7275 84.6583C13.8899 80.5391 16.2147 77.5856 18.8495 77.197C22.4917 76.653 23.0341 76.653 33.8832 77.4302ZM149.193 258.055C159.422 258.211 164.537 258.677 167.017 259.532C168.954 260.154 177.323 264.04 185.615 268.081C193.907 272.045 203.981 276.708 207.856 278.341L215.062 281.372L216.302 285.336C218.162 291.009 222.192 299.481 225.369 304.377C226.919 306.709 227.849 308.807 227.384 308.885C225.601 309.507 195.767 302.59 176.161 297.072C145.473 288.367 111.221 273.988 92.1581 261.864L85.1062 257.356L109.982 257.511C123.698 257.667 141.289 257.9 149.193 258.055ZM455.291 285.258C455.291 286.113 433.981 297.227 425.224 301.035C402.364 310.984 375.706 318.212 351.605 321.087C347.653 321.554 347.498 321.476 346.181 319.067C345.484 317.745 343.236 313.859 341.221 310.517C339.207 307.098 337.812 304.377 338.122 304.377C347.963 304.3 383.843 301.035 398.411 298.937C415.692 296.372 438.475 291.009 450.642 286.579C452.967 285.724 454.981 285.025 455.136 285.025C455.214 284.947 455.291 285.102 455.291 285.258Z" fill="#02001A"/>
<path d="M27.7612 90.1766C24.429 91.731 22.8017 94.4513 21.6393 100.591C18.927 114.348 22.1042 141.084 26.9863 146.525C27.9162 147.535 30.861 149.4 33.5732 150.644C39.8502 153.52 55.3488 158.028 61.3158 158.649C65.3454 159.116 66.1979 158.96 68.6002 157.328C74.0247 153.675 81.2316 141.861 86.1911 128.726C88.3609 122.897 89.0584 119.866 89.3683 114.27C89.8333 104.866 88.9809 103.312 81.619 99.6586C66.8178 92.4305 35.0456 86.8345 27.7612 90.1766ZM50.0018 100.824C51.0867 102.845 50.8542 103.156 41.7875 110.54C35.743 115.436 34.1932 116.369 32.5658 115.98C31.0934 115.592 30.6285 114.97 30.6285 113.26C30.6285 111.395 31.7909 110.151 38.2228 105.177C46.0496 99.0368 48.6069 98.0264 50.0018 100.824ZM67.1278 104.633C67.9027 105.099 68.6002 106.265 68.6002 107.353C68.6002 108.752 65.9654 111.317 56.8987 118.934C50.3892 124.296 44.5773 128.726 43.8798 128.726C42.2525 128.726 40.7026 127.25 40.7026 125.618C40.7026 123.908 45.9721 119.089 61.4708 106.809C65.6554 103.467 65.1905 103.622 67.1278 104.633Z" fill="#02001A"/>
<path d="M152.293 119.789C149.116 121.188 146.326 124.918 144.466 130.514C142.606 135.721 142.451 154.996 144.156 164.556C147.101 181.5 148.341 182.976 163.529 188.028C182.825 194.401 201.191 197.199 206.461 194.479C213.28 190.904 225.524 171.551 231.026 155.54C233.816 147.535 234.126 138.442 231.723 135.721C228.779 132.379 216.225 127.716 199.176 123.752C180.733 119.4 157.562 117.457 152.293 119.789ZM184.995 129.271C185.77 129.97 186.39 131.136 186.39 131.835C186.39 132.846 175.308 142.639 159.19 155.851C157.252 157.406 156.633 157.561 155.005 156.862C153.688 156.24 153.068 155.307 153.068 154.064C153.068 152.587 156.09 149.711 167.482 140.074C175.463 133.39 182.36 127.949 182.748 127.949C183.213 127.949 184.22 128.493 184.995 129.271ZM201.734 138.986C203.826 141.084 202.354 142.872 191.272 152.198C177.478 163.857 176.471 164.556 174.301 163.701C170.891 162.38 171.511 160.126 176.548 155.696C195.844 138.908 199.331 136.576 201.734 138.986Z" fill="#02001A"/>
<path d="M598.008 491.638L585.61 477.357L625.786 433.102H650.424L598.008 491.638ZM578.234 511.569V401.715H598.95V511.569H578.234ZM628.453 511.569L602.402 473.591L615.899 459.31L652.778 511.569H628.453Z" fill="#02001A"/>
<path d="M538.079 470.293C538.079 461.818 539.701 454.808 542.944 449.263C546.292 443.718 550.529 439.586 555.656 436.865C560.887 434.145 566.328 432.785 571.977 432.785V452.873C567.165 452.873 562.613 453.448 558.324 454.599C554.139 455.75 550.739 457.633 548.123 460.249C545.508 462.864 544.2 466.212 544.2 470.293H538.079ZM523.484 511.566V433.099H544.2V511.566H523.484Z" fill="#02001A"/>
<path d="M493.467 511.569L492.84 495.719V471.865C492.84 467.157 492.317 463.129 491.27 459.781C490.329 456.433 488.759 453.87 486.562 452.091C484.47 450.208 481.593 449.266 477.931 449.266C474.583 449.266 471.549 449.999 468.829 451.463C466.108 452.928 463.807 455.177 461.924 458.211L443.719 451.934C445.184 448.586 447.329 445.343 450.153 442.204C452.978 438.961 456.64 436.345 461.139 434.357C465.742 432.265 471.34 431.219 477.931 431.219C485.882 431.219 492.473 432.736 497.705 435.77C503.04 438.804 506.964 443.093 509.475 448.638C512.09 454.079 513.346 460.566 513.241 468.098L512.77 511.569H493.467ZM471.497 513.452C462.08 513.452 454.757 511.36 449.526 507.175C444.399 502.99 441.836 497.079 441.836 489.441C441.836 481.072 444.608 474.794 450.153 470.609C455.803 466.32 463.702 464.175 473.851 464.175H493.781V479.555H481.07C474.269 479.555 469.561 480.392 466.945 482.066C464.33 483.635 463.022 485.884 463.022 488.814C463.022 491.115 464.068 492.946 466.161 494.306C468.253 495.562 471.183 496.19 474.949 496.19C478.402 496.19 481.436 495.405 484.051 493.836C486.772 492.162 488.916 490.069 490.486 487.558C492.055 484.943 492.84 482.275 492.84 479.555H497.862C497.862 490.226 495.821 498.544 491.741 504.507C487.765 510.471 481.017 513.452 471.497 513.452Z" fill="#02001A"/>
<path d="M343.867 511.569V401.715H379.021C390.215 401.715 400.102 404.069 408.681 408.777C417.365 413.485 424.113 419.972 428.926 428.237C433.843 436.397 436.302 445.866 436.302 456.642C436.302 467.314 433.843 476.782 428.926 485.047C424.113 493.312 417.365 499.799 408.681 504.507C400.102 509.215 390.215 511.569 379.021 511.569H343.867ZM365.367 491.481H379.021C384.042 491.481 388.698 490.592 392.988 488.814C397.277 487.035 400.991 484.576 404.13 481.438C407.373 478.299 409.884 474.637 411.663 470.452C413.441 466.163 414.331 461.559 414.331 456.642C414.331 451.725 413.441 447.174 411.663 442.989C409.884 438.699 407.373 434.985 404.13 431.846C400.991 428.708 397.277 426.249 392.988 424.47C388.698 422.692 384.042 421.802 379.021 421.802H365.367V491.481Z" fill="#02001A"/>
<path d="M309.327 511.569L308.699 495.719V471.865C308.699 467.157 308.176 463.129 307.13 459.781C306.188 456.433 304.619 453.87 302.422 452.091C300.329 450.208 297.452 449.266 293.79 449.266C290.442 449.266 287.408 449.999 284.688 451.463C281.968 452.928 279.666 455.177 277.783 458.211L259.579 451.934C261.043 448.586 263.188 445.343 266.013 442.204C268.838 438.961 272.499 436.345 276.998 434.357C281.602 432.265 287.199 431.219 293.79 431.219C301.742 431.219 308.333 432.736 313.564 435.77C318.9 438.804 322.823 443.093 325.334 448.638C327.95 454.079 329.205 460.566 329.101 468.098L328.63 511.569H309.327ZM287.356 513.452C277.94 513.452 270.616 511.36 265.385 507.175C260.259 502.99 257.695 497.079 257.695 489.441C257.695 481.072 260.468 474.794 266.013 470.609C271.662 466.32 279.562 464.175 289.71 464.175H309.641V479.555H296.929C290.128 479.555 285.42 480.392 282.805 482.066C280.189 483.635 278.881 485.884 278.881 488.814C278.881 491.115 279.928 492.946 282.02 494.306C284.113 495.562 287.042 496.19 290.809 496.19C294.261 496.19 297.295 495.405 299.911 493.836C302.631 492.162 304.776 490.069 306.345 487.558C307.914 484.943 308.699 482.275 308.699 479.555H313.721C313.721 490.226 311.681 498.544 307.601 504.507C303.625 510.471 296.877 513.452 287.356 513.452Z" fill="#02001A"/>
<path d="M206.11 491.638L193.712 477.357L233.887 433.102H258.526L206.11 491.638ZM186.336 511.569V401.715H207.051V511.569H186.336ZM236.555 511.569L210.504 473.591L224 459.31L260.88 511.569H236.555Z" fill="#02001A"/>
<path d="M153.646 511.567L152.391 497.129V433.1H173.106V511.567H153.646ZM100.445 473.275V433.1H121.161V473.275H100.445ZM121.161 473.275C121.161 478.506 121.736 482.639 122.887 485.673C124.142 488.602 125.869 490.747 128.066 492.107C130.368 493.362 132.931 493.99 135.756 493.99C141.196 494.095 145.329 492.473 148.153 489.125C150.978 485.673 152.391 480.703 152.391 474.216H159.453C159.453 482.586 158.197 489.701 155.686 495.56C153.175 501.314 149.723 505.76 145.329 508.899C140.934 511.933 135.756 513.45 129.792 513.45C123.515 513.45 118.179 512.195 113.785 509.684C109.391 507.173 106.043 503.302 103.741 498.071C101.544 492.735 100.445 485.882 100.445 477.512V473.275H121.161Z" fill="#02001A"/>
<path d="M61.6809 470.293C61.6809 461.818 63.3025 454.808 66.5458 449.263C69.8938 443.718 74.131 439.586 79.2575 436.865C84.4887 434.145 89.9291 432.785 95.5787 432.785V452.873C90.7661 452.873 86.215 453.448 81.9254 454.599C77.7405 455.75 74.3402 457.633 71.7247 460.249C69.1091 462.864 67.8013 466.212 67.8013 470.293H61.6809ZM47.0859 511.566V433.099H67.8013V511.566H47.0859Z" fill="#02001A"/>
<path d="M9.41406 511.569V401.715H30.9141V511.569H9.41406Z" fill="#02001A"/>
<defs>
<linearGradient id="paint0_linear_10166_127" x1="13.877" y1="14.4552" x2="626.578" y2="171.235" gradientUnits="userSpaceOnUse">
<stop stop-color="#EA3A77"/>
<stop offset="0.471154" stop-color="#D957C1"/>
</linearGradient>
</defs>
</svg>
